<?xml version="1.0" encoding="UTF-8" standalone="no"?>
<!-- Created with Inkscape (http://www.inkscape.org/) -->

<svg
   width="278.54968mm"
   height="91.451263mm"
   viewBox="0 0 278.54968 91.451263"
   version="1.1"
   id="svg5"
   inkscape:version="1.2 (dc2aedaf03, 2022-05-15)"
   sodipodi:docname="logo.svg"
   inkscape:export-filename="logo_bis.svg"
   inkscape:export-xdpi="96"
   inkscape:export-ydpi="96"
   xmlns:inkscape="http://www.inkscape.org/namespaces/inkscape"
   xmlns:sodipodi="http://sodipodi.sourceforge.net/DTD/sodipodi-0.dtd"
   xmlns="http://www.w3.org/2000/svg"
   xmlns:svg="http://www.w3.org/2000/svg">
  <sodipodi:namedview
     id="namedview7"
     pagecolor="#ffffff"
     bordercolor="#666666"
     borderopacity="1.0"
     inkscape:showpageshadow="2"
     inkscape:pageopacity="0.0"
     inkscape:pagecheckerboard="true"
     inkscape:deskcolor="#d1d1d1"
     inkscape:document-units="mm"
     showgrid="false"
     inkscape:zoom="1.0129245"
     inkscape:cx="79.472852"
     inkscape:cy="336.15536"
     inkscape:window-width="1920"
     inkscape:window-height="991"
     inkscape:window-x="-9"
     inkscape:window-y="429"
     inkscape:window-maximized="1"
     inkscape:current-layer="layer1" />
  <defs
     id="defs2" />
  <g
     inkscape:label="Calque 1"
     inkscape:groupmode="layer"
     id="layer1"
     transform="translate(-13.108148,-4.2285428)">
    <rect
       style="fill:none;fill-opacity:1;fill-rule:evenodd;stroke:#000000;stroke-width:3.028;stroke-linejoin:round;stroke-dasharray:none;stroke-opacity:1"
       id="rect234"
       width="61.403748"
       height="61.403748"
       x="45.634079"
       y="-36.448441"
       transform="matrix(0.70710601,0.70710755,-0.70710601,0.70710755,0,0)" />
    <ellipse
       style="fill:none;fill-opacity:1;fill-rule:evenodd;stroke:#000000;stroke-width:3.50974;stroke-linejoin:round;stroke-dasharray:none;stroke-opacity:1"
       id="path1005"
       cx="58.088623"
       cy="50.792915"
       rx="19.245138"
       ry="12.688235" />
    <path
       style="fill:none;fill-opacity:1;stroke:#000000;stroke-width:2.565;stroke-linecap:butt;stroke-linejoin:miter;stroke-dasharray:none;stroke-opacity:1"
       d="m 57.996269,37.679103 c -4.816079,6.733506 -11.179418,12.966427 0.1847,24.934703 h 0.184701"
       id="path1010"
       sodipodi:nodetypes="ccc" />
    <path
       style="fill:none;fill-opacity:1;stroke:#000000;stroke-width:2.565;stroke-linecap:butt;stroke-linejoin:miter;stroke-dasharray:none;stroke-opacity:1"
       d="m 58.149659,37.687955 c 4.816079,6.733506 11.179418,12.966427 -0.1847,24.934703 h -0.184701"
       id="path1010-3"
       sodipodi:nodetypes="ccc" />
    <path
       style="fill:none;fill-opacity:1;stroke:#000000;stroke-width:0.264583px;stroke-linecap:butt;stroke-linejoin:miter;stroke-opacity:1"
       d="m 58.180969,37.494403 -5.725747,10.158581 -0.1847,5.725748 5.910447,10.158581 5.541045,-9.789178 -0.184701,-7.942165 z"
       id="path1136" />
    <path
       style="fill:none;fill-opacity:1;stroke:#000000;stroke-width:1.5;stroke-linecap:butt;stroke-linejoin:miter;stroke-dasharray:none;stroke-opacity:1"
       d="m 57.811566,7.2033582 c 5.585035,8.6955538 13.831451,16.5472548 0,31.3992548"
       id="path1146"
       sodipodi:nodetypes="cc" />
    <path
       style="fill:none;fill-opacity:1;stroke:#000000;stroke-width:1.5;stroke-linecap:butt;stroke-linejoin:miter;stroke-dasharray:none;stroke-opacity:1"
       d="m 59.444134,60.898579 c -5.585035,8.695554 -13.831451,16.547255 0,31.399255"
       id="path1146-2"
       sodipodi:nodetypes="cc" />
    <path
       style="fill:none;fill-opacity:1;stroke:#000000;stroke-width:1;stroke-linecap:butt;stroke-linejoin:miter;stroke-dasharray:none;stroke-opacity:1"
       d="M 76.835819,46.729477 C 88.928745,45.197513 93.48971,32.699572 103.77658,32.641521 l 0.39506,0.235344"
       id="path1180"
       sodipodi:nodetypes="ccc" />
    <path
       style="fill:none;stroke:#000000;stroke-width:1;stroke-linecap:butt;stroke-linejoin:miter;stroke-dasharray:none;stroke-opacity:1"
       d="M 77.759326,51.347015 C 91.712725,57.578437 94.3182,37.256572 116.73134,44.51306"
       id="path1182"
       sodipodi:nodetypes="cc" />
    <path
       style="fill:none;fill-opacity:1;stroke:#000000;stroke-width:1;stroke-linecap:butt;stroke-linejoin:miter;stroke-dasharray:none;stroke-opacity:1"
       d="m 77.205223,55.225746 c 21.551859,0.117911 23.089857,8.129523 33.061567,2.031715"
       id="path1184"
       sodipodi:nodetypes="cc" />
    <g
       aria-label="Volti'Cats"
       transform="scale(0.61970608,1.6136682)"
       id="text1244"
       style="font-size:62.3676px;line-height:1.25;font-family:'Matura MT Script Capitals';-inkscape-font-specification:'Matura MT Script Capitals';stroke-width:0.649663">
      <path
         d="m 223.57439,2.6509067 q 6.15149,1.7662699 7.64368,2.0707992 1.15721,3.9284279 1.15721,7.7654971 0,4.720204 -1.73581,8.892255 -1.76627,1.400835 -3.65436,3.258464 -1.85762,1.827176 -4.2025,4.537486 -2.34488,2.679858 -4.59839,5.603339 -7.33916,9.470861 -12.97295,19.185346 l -9.25769,4.659298 -0.85268,-14.130159 q -0.39589,-6.486474 -1.43129,-11.023961 -1.00495,-4.324316 -2.61895,-7.400062 -1.5531,-2.893028 -4.50704,-6.212397 -10.44535,-5.481527 -22.9006,-5.481527 -3.07575,0 -6.51693,0.548152 4.35477,-6.1210386 5.87742,-9.0749727 6.30376,-3.1366517 13.0034,-3.1366517 6.2733,0 12.66842,2.588499 3.07574,1.2181171 7.03463,3.5934456 3.95888,2.3448758 8.46591,5.6946978 0.12181,1.948988 0.12181,2.862575 0,1.857629 -0.66996,10.719432 -0.63951,8.861802 -1.4922,18.911269 10.71943,-14.921936 19.2158,-21.10388 l -0.27407,-9.105426 -6.02968,0.791776 q 0.63951,-1.461741 2.52759,-4.811563 1.91853,-3.3802751 5.99923,-10.2017313 z"
         id="path912" />
      <path
         d="m 242.85108,22.841199 q -1.614,2.710311 -1.614,5.603339 0,7.887309 8.07003,9.623126 0.76132,-3.045293 0.76132,-5.968775 0,-4.689751 -2.22307,-6.730097 -2.19261,-2.009893 -4.99428,-2.527593 z m 13.06431,-4.902922 -1.64446,2.80167 q 2.28397,0.700417 3.71526,2.953934 1.46174,2.28397 1.46174,5.633792 0,3.22801 -1.24857,5.999227 -1.27902,2.740764 -2.71031,3.989334 -1.46174,1.309476 -5.02473,3.075746 -0.63952,0.304529 -1.79673,1.126758 -0.88313,0.669964 -1.52264,1.004947 -5.93832,-0.03045 -10.81079,-3.349823 -4.87247,-3.22801 -4.87247,-8.161385 0,-8.039573 11.11532,-15.409182 5.08564,0.456794 8.61818,0.456794 2.61895,0 4.7202,-0.121812 z"
         id="path914" />
      <path
         d="m 265.02082,6.3661641 5.96878,-1.5226465 4.50703,-1.2181172 -1.27902,22.4742616 -0.45679,8.83135 q 2.25351,1.614005 5.08563,3.258463 v 0.213171 q -3.62389,3.380275 -6.09058,6.669191 -4.20251,-0.883135 -6.27331,-3.623898 -2.07079,-2.771217 -2.07079,-7.430515 0,-1.857629 0.18271,-6.090586 0.18272,-4.080692 0.42634,-21.5606739 z"
         id="path916" />
      <path
         d="m 284.38888,16.841972 -0.0304,-2.466687 q 0.36543,-0.06091 2.89303,-0.30453 4.29386,-0.456794 6.39511,-0.761323 0.0305,0.487247 0.0305,1.0354 0,0.974493 -0.21317,3.22801 0.9745,0.09136 3.86753,0.09136 1.97944,0 2.6494,-0.09136 -0.82223,4.933375 -1.06585,5.81651 -2.04035,0.304529 -5.63379,0.456794 -0.21317,4.507033 -0.21317,6.151491 0,2.649405 1.24857,4.232958 1.21811,1.553099 4.23295,2.436234 l -5.26835,7.978667 q -9.95811,-2.740763 -9.95811,-10.29309 0,-1.24857 0.42634,-4.811563 0.42634,-3.684804 0.48725,-4.963827 -1.40084,0.03045 -3.1062,0.334982 l 3.22801,-5.542433 v -0.609059 z"
         id="path918" />
      <path
         d="m 301.2598,25.795133 0.82223,-3.806616 q 6.12104,-1.004947 14.0388,-4.750657 v 5.359715 l -0.0914,2.28397 q 0,0.456794 0.0304,0.822229 0.0305,1.004947 0.0305,2.771217 0,0.791776 0.0305,1.279023 l 0.21317,5.359715 q 0.0609,1.735817 0.45679,7.79595 -6.2733,1.096306 -10.90214,1.644459 0.42634,-3.83707 0.42634,-11.419849 l -0.12182,-7.643685 q -1.27902,0.5177 -2.74076,0.5177 -1.0963,0 -2.19261,-0.213171 z m 9.01407,-22.4438089 q 2.28397,0 3.95888,1.5835523 1.64446,1.5835523 1.64446,4.0197867 0,2.2839699 -1.64446,3.9284279 -1.67491,1.644458 -3.95888,1.644458 -2.28397,0 -3.92843,-1.644458 -1.64446,-1.614005 -1.64446,-3.9284279 0,-2.3144226 1.64446,-3.9588808 1.614,-1.6444582 3.92843,-1.6444582 z"
         id="path920" />
      <path
         d="m 330.86006,18.577789 h -6.30376 l -1.61401,-8.31365 V 2.7118126 h 9.3186 v 7.5523264 z"
         id="path922" />
      <path
         d="m 383.87861,3.3208711 1.82718,6.7300979 q -0.66997,5.694697 -3.563,15.622352 -2.25351,-5.298809 -4.7202,-9.714484 -6.02968,-2.436234 -11.84619,-2.436234 -9.50131,0 -14.83058,5.603339 -5.35971,5.633791 -5.35971,13.186118 0,4.141598 2.25351,7.125985 2.22307,2.953935 8.52682,5.481528 6.33421,2.527593 15.83553,3.806616 3.1671,0.456794 6.48647,0.73087 3.31937,0.274077 7.27825,0.426341 3.95888,0.152265 7.40006,0.152265 l -5.35971,7.034627 q -11.87664,2.223063 -22.41336,2.223063 -13.91699,0 -20.34255,-5.329262 -6.48648,-5.29881 -6.48648,-13.764724 0,-9.379503 5.39017,-18.454476 5.32926,-9.074973 14.61741,-14.0997059 9.28814,-5.0247333 18.60674,-5.0247333 3.10619,0 6.69964,0.7004173 z"
         id="path924" />
      <path
         d="m 401.32813,24.577016 0.66996,11.968001 q 1.67491,-1.857629 3.31937,-4.172051 1.64446,-2.344876 2.80167,-4.385222 -1.67491,-2.405781 -6.791,-3.410728 z m 0.12181,-7.339156 q 0.45679,0.121812 5.51198,1.065852 4.56794,0.82223 6.02968,1.279023 1.43129,0.5177 2.71031,1.644459 1.27902,1.126758 1.91854,3.167104 0.63951,2.009894 0.63951,5.451075 l -0.15227,8.953161 q 0,1.583552 0.30453,3.715257 -2.83212,0.456794 -10.38445,2.618952 0.54816,-4.172051 0.54816,-11.480754 -0.5177,0.852682 -3.01484,3.593446 -2.49714,2.740763 -7.12599,7.49142 -3.56299,-0.944041 -5.48153,-1.827176 -0.12181,-1.157211 -0.48724,-3.593445 -0.5177,-3.806616 -0.5177,-6.882362 0,-4.446128 1.85763,-7.491421 1.79672,-3.01484 7.64368,-7.704591 z"
         id="path926" />
      <path
         d="m 424.56373,16.841972 -0.0305,-2.466687 q 0.36543,-0.06091 2.89303,-0.30453 4.29386,-0.456794 6.39511,-0.761323 0.0305,0.487247 0.0305,1.0354 0,0.974493 -0.21318,3.22801 0.9745,0.09136 3.86753,0.09136 1.97944,0 2.6494,-0.09136 -0.82223,4.933375 -1.06585,5.81651 -2.04035,0.304529 -5.63379,0.456794 -0.21317,4.507033 -0.21317,6.151491 0,2.649405 1.24857,4.232958 1.21811,1.553099 4.23295,2.436234 l -5.26835,7.978667 q -9.95811,-2.740763 -9.95811,-10.29309 0,-1.24857 0.42634,-4.811563 0.42634,-3.684804 0.48725,-4.963827 -1.40084,0.03045 -3.1062,0.334982 l 3.22801,-5.542433 v -0.609059 z"
         id="path928" />
      <path
         d="m 451.78865,17.055142 q 0.18271,0 5.2379,0.365435 5.42062,0.334983 10.56717,0.334983 -0.0305,0.121811 -0.66997,2.283969 -1.06585,3.53254 -1.0963,5.237904 -3.563,-1.400834 -13.85609,-2.283969 1.46174,4.324316 9.56222,4.324316 4.26341,0 5.84697,0.365435 1.52264,0.365435 2.40578,1.522646 0.85268,1.126759 0.85268,3.258464 0,2.283969 -0.97449,4.47658 -1.0354,2.192611 -2.40579,3.53254 -1.40083,1.370382 -4.93337,2.466687 -3.50209,1.096306 -7.36961,1.096306 -6.69964,0 -11.17622,-2.740764 0.54815,-1.827176 1.67491,-4.47658 4.75065,2.070799 10.74988,2.070799 3.16711,0 5.84696,-1.76627 -1.85762,-1.309476 -4.05024,-1.309476 -0.45679,0 -1.0963,0.03045 -1.52265,0.06091 -1.73582,0.06091 -5.99923,0 -9.13588,-1.796723 -3.13665,-1.76627 -3.13665,-6.151492 0,-3.471634 1.88808,-5.816509 1.85763,-2.314423 7.00418,-5.08564 z"
         id="path930" />
    </g>
    <path
       style="fill:none;fill-opacity:1;stroke:#000000;stroke-width:2.5;stroke-linecap:butt;stroke-linejoin:miter;stroke-dasharray:none;stroke-opacity:1"
       d="M 15.150026,50.151813 H 39.44231 v 0"
       id="path1296" />
  </g>
</svg>
