<svg xmlns="http://www.w3.org/2000/svg" width="1052.787" height="345.642" viewBox="0 0 278.55 91.451" xmlns:v="https://vecta.io/nano"><g fill="none" stroke="#000"><g stroke-linejoin="round"><path d="M44.933 2.267l43.419 43.419-43.419 43.419L1.514 45.685z" stroke-width="3.028"/><ellipse cx="44.981" cy="46.564" rx="19.245" ry="12.688" stroke-width="3.51"/></g><g stroke-width="2.565"><path d="M44.888 33.45c-4.816 6.734-11.179 12.966.185 24.935h.185"/><path d="M45.042 33.459c4.816 6.734 11.179 12.966-.185 24.935h-.185"/></g><path d="M45.073 33.265l-5.726 10.159-.185 5.726 5.91 10.159 5.541-9.789-.185-7.942z" stroke-width=".265"/><path d="M44.704 2.974c5.585 8.696 13.831 16.547 0 31.399m1.632 22.297c-5.585 8.696-13.831 16.547 0 31.399" stroke-width="1.5"/><path d="M63.728 42.5c12.093-1.532 16.654-14.03 26.941-14.088l.395.235M64.651 47.118c13.953 6.231 16.559-14.09 38.972-6.834M64.097 50.997c21.552.118 23.09 8.13 33.062 2.032"/></g><path d="M220.632 0c-3.85 0-7.694 2.703-11.531 8.108s-6.857 12.989-9.058 22.752c-2.227 9.763-3.34 19.689-3.34 29.78 0 9.107 1.34 16.511 4.02 22.212 2.655 5.733 6.857 8.6 12.606 8.6 4.353 0 8.983-1.196 13.89-3.587l3.321-11.352c-1.422 0-2.95-.082-4.586-.245s-3.139-.393-4.51-.688-2.711-.688-4.02-1.18c-3.925-1.376-7.196-3.423-9.813-6.142-2.604-2.719-4.365-5.668-5.284-8.845-.931-3.211-1.396-7.044-1.396-11.499 0-8.125 1.107-15.218 3.321-21.278 2.202-6.028 5.265-9.042 9.191-9.042 2.403 0 4.85 1.311 7.341 3.932 1.019 4.75 1.994 9.976 2.925 15.676 1.195-10.68 1.931-19.083 2.208-25.209l-1.132-10.86C223.299.376 221.916 0 220.632 0zm-95.19.049l-3.718 16.462-1.566 7.764 3.737-1.278.169 14.693c-3.51 6.65-7.479 18.002-11.908 34.055l.924-30.516.415-17.298c0-.983-.025-2.523-.075-4.619-1.862-3.604-3.611-6.667-5.247-9.189-1.636-2.555-3.089-4.488-4.359-5.799-2.642-2.785-5.259-4.177-7.851-4.177-2.768 0-5.454 1.687-8.058 5.062-.629 3.178-1.844 8.059-3.643 14.644 1.422-.59 2.768-.884 4.039-.884 5.146 0 9.877 2.949 14.192 8.845 1.22 3.571 2.151 6.912 2.793 10.025.667 3.309 1.207 7.289 1.623 11.941.428 4.881.724 10.811.887 17.789l.528 22.802 5.737-7.519c2.328-10.451 5.007-20.77 8.039-30.959.931-3.145 1.881-6.159 2.85-9.042.969-2.916 1.837-5.356 2.604-7.322.78-1.998 1.535-3.751 2.264-5.258.717-4.488 1.075-9.271 1.075-14.349 0-4.128-.239-8.305-.717-12.531-.616-.328-2.196-1.441-4.737-3.341zm61.579.098v12.187l1 13.416h3.907l.868-13.416V.147zm-7.851 1.032c-.956 0-1.768.885-2.434 2.654-.679 1.769-1.019 3.898-1.019 6.388s.34 4.603 1.019 6.339c.679 1.769 1.491 2.654 2.434 2.654s1.761-.885 2.453-2.654c.679-1.769 1.019-3.882 1.019-6.339 0-2.621-.34-4.783-1.019-6.486-.692-1.704-1.509-2.555-2.453-2.555zm-21.552.442l-2.793 1.966-3.699 2.457-.264 34.792-.113 9.828c0 5.012.428 9.009 1.283 11.99.856 2.948 2.151 4.898 3.888 5.848 1.019-3.538 2.277-7.125 3.774-10.762v-.344c-1.17-1.769-2.221-3.522-3.152-5.258l.283-14.251zm11.247 15.627c-.868.328-2.189.737-3.963 1.228-1.044.262-1.642.426-1.793.491l.019 3.98-.019 3.096v.983l-2 8.944c.705-.328 1.346-.508 1.925-.541-.025 1.376-.126 4.046-.302 8.01l-.265 7.764c0 8.125 2.057 13.661 6.171 16.61l3.265-12.875c-1.246-.95-2.12-2.26-2.623-3.931-.516-1.704-.774-3.98-.774-6.831l.132-9.927c1.485-.164 2.648-.41 3.491-.737.101-.95.321-4.078.66-9.385-.277.098-.824.147-1.642.147-1.195 0-1.994-.049-2.397-.147l.132-5.209-.019-1.671zm86.868 0c-.868.328-2.19.737-3.964 1.228-1.044.262-1.642.426-1.793.491l.019 3.98-.019 3.096v.983l-2 8.944c.705-.328 1.346-.508 1.925-.541-.025 1.376-.126 4.046-.302 8.01l-.264 7.764c0 8.125 2.057 13.661 6.171 16.61l3.265-12.875c-1.246-.95-2.12-2.26-2.623-3.931-.516-1.704-.774-3.98-.774-6.831l.132-9.927c1.485-.164 2.648-.41 3.491-.737.101-.95.321-4.078.661-9.385-.277.098-.825.147-1.642.147-1.195 0-1.994-.049-2.397-.147l.132-5.209-.019-1.671zm11.134 6.044c-2.126 2.981-3.573 5.717-4.34 8.207-.78 2.523-1.17 5.651-1.17 9.386 0 4.718.648 8.026 1.944 9.926 1.296 1.933 3.183 2.9 5.662 2.9.088 0 .446-.033 1.075-.098.264-.033.491-.049.68-.049.906 0 1.742.704 2.51 2.113-1.107 1.9-2.315 2.85-3.624 2.85-2.479 0-4.699-1.114-6.662-3.341-.466 2.85-.812 5.258-1.038 7.223 1.849 2.948 4.158 4.423 6.926 4.423 1.598 0 3.12-.59 4.567-1.769 1.459-1.179 2.478-2.506 3.057-3.981.566-1.441 1.063-3.342 1.491-5.7a42.86 42.86 0 0 0 .604-7.224c0-2.293-.176-4.046-.528-5.258-.365-1.245-.862-2.064-1.491-2.457-.654-.393-1.862-.59-3.624-.59-3.347 0-5.322-2.326-5.926-6.978 4.252.95 7.115 2.179 8.587 3.686.013-1.835.239-4.652.68-8.452l.415-3.686c-2.126 0-4.309-.18-6.548-.541l-3.246-.59zm-84.074.295c-3.271 4.03-6.171 6.585-8.7 7.666l-.51 6.143c.453.229.906.344 1.359.344.604 0 1.17-.279 1.699-.836l.075 12.334-.264 18.428c1.912-.59 4.164-1.474 6.756-2.654l-.283-12.58-.132-8.649-.019-2.064-.019-4.472c-.013-.393-.019-.836-.019-1.327l.057-3.686zm52.879 0c-2.416 5.045-3.995 9.189-4.737 12.432-.767 3.276-1.151 7.306-1.151 12.089 0 3.309.107 7.011.32 11.106l.302 5.799c.793.95 1.925 1.933 3.397 2.949l4.416-12.089c1.032-2.948 1.654-4.881 1.868-5.799 0 7.863-.113 14.038-.34 18.526 3.12-2.326 5.265-3.735 6.435-4.226-.126-2.293-.189-4.291-.189-5.995l.094-14.448c0-3.702-.132-6.634-.396-8.796-.264-2.195-.66-3.899-1.189-5.111s-1.089-2.097-1.68-2.654c-.604-.491-1.849-1.179-3.736-2.064l-3.416-1.72zm-98.455.59c-4.592 7.928-6.888 16.216-6.888 24.865 0 5.307 1.006 9.697 3.019 13.17 2.013 3.571 4.246 5.373 6.699 5.405.264-.36.579-.901.944-1.622.478-.885.849-1.49 1.114-1.818 1.472-1.9 2.51-3.555 3.114-4.964.591-1.343 1.151-3.489 1.679-6.437.516-2.981.774-6.208.774-9.681 0-3.604-.302-6.634-.906-9.091-.591-2.424-1.359-4.013-2.302-4.767l1.019-4.521c-.868.131-1.843.196-2.925.196-1.459 0-3.24-.245-5.341-.737zm.17 8.452c1.157.557 2.189 1.917 3.095 4.079.918 2.195 1.378 5.815 1.378 10.86 0 3.145-.157 6.356-.472 9.632-3.334-1.867-5.001-7.044-5.001-15.529 0-3.112.333-6.126 1-9.042zm98.209 2.801c2.114 1.081 3.517 2.916 4.209 5.504a150.46 150.46 0 0 1-1.736 7.076c-.679 2.49-1.365 4.734-2.057 6.732z"/><path d="M2.042 45.923h24.292" fill="none" stroke="#000" stroke-width="2.5"/></svg>